<svg version="1.1" xmlns="http://www.w3.org/2000/svg" style="display: block;" viewBox="0 0 2048 2048" width="1024" height="1024" preserveAspectRatio="none">
<defs>
	<linearGradient id="Gradient1" gradientUnits="userSpaceOnUse" x1="1644.77" y1="574.588" x2="1653.64" y2="585.68">
		<stop class="stop0" offset="0" stop-opacity="1" stop-color="rgb(159,158,158)"/>
		<stop class="stop1" offset="1" stop-opacity="1" stop-color="rgb(194,193,193)"/>
	</linearGradient>
</defs>
<path transform="translate(0,0)" fill="rgb(52,191,248)" d="M 1755.98 443.769 C 1758.64 451.532 1758.71 457.033 1759.42 465.32 C 1759.82 465.532 1760.22 465.744 1760.63 465.956 C 1757.52 468.316 1754.77 476.27 1753.85 480.094 C 1754.23 481.742 1754.62 483.387 1755.02 485.029 L 1761.64 492.613 L 1764.95 497.681 L 1766.41 499.426 C 1768.15 501.462 1770.11 503.672 1771.77 505.737 L 1785.69 522.763 C 1779.92 529.418 1777.35 531.965 1770.67 537.702 C 1769.82 540.854 1768.87 543.921 1768.46 547.153 C 1769.18 550.217 1770.83 558.103 1771.8 560.691 C 1774.14 568.248 1777.58 569.736 1779.09 574.367 C 1778.99 574.726 1778 578.313 1778 578.313 C 1750 601.104 1721.19 623.088 1692.92 645.557 C 1682.09 654.163 1671.15 665.01 1660.06 672.811 C 1659.18 673.797 1657.73 675.535 1656.81 676.347 C 1652.62 678.46 1643.3 695.151 1640.3 700.248 C 1644.26 713.394 1650.11 726.784 1655.41 739.509 C 1647.32 748.246 1644.43 749.809 1643.89 762.387 C 1643.22 778.216 1656.22 784.085 1660.76 794.754 C 1678.5 836.379 1630.64 887.227 1593.3 895.012 C 1589.08 896.01 1585.83 896.382 1582.3 898.874 L 1581.69 900.801 C 1590.82 904.785 1598.14 909.142 1602.3 918.946 C 1604.96 925.371 1605.03 932.58 1602.49 939.054 C 1601.21 942.259 1598.45 945.825 1596.23 948.507 C 1599.31 953.027 1599.37 953.733 1604.95 954.681 C 1613.99 958.12 1620.15 961.165 1624.45 970.876 C 1627.33 977.427 1627.31 984.891 1624.39 991.426 C 1622.95 994.636 1620.22 998.479 1617.65 1000.95 C 1617.08 1003.63 1616.68 1004.5 1617.08 1007.2 C 1621.48 1010.64 1626.48 1014.73 1630.96 1017.93 C 1639.64 1011.88 1647.64 1020.67 1647.96 1028.46 C 1629.46 1042.67 1609.26 1058.63 1591.56 1073.95 C 1589.64 1077.06 1587.81 1080.02 1586.04 1083.22 C 1585.8 1108.21 1565.11 1137.24 1547.65 1153.77 C 1507.06 1192.19 1456.75 1216.67 1404.7 1235.64 C 1389.59 1241.15 1372.11 1245.54 1357.79 1251.41 C 1378.24 1333.57 1389.93 1450 1347.47 1526.17 C 1302.87 1606.18 1202.96 1569.69 1143.57 1530.07 C 1102.72 1502.82 1067.88 1474.07 1033.33 1438.71 C 1025.6 1444.51 1020.22 1451.34 1013.39 1457.51 C 954.304 1510.89 871.552 1584.11 785.268 1572.75 C 677.937 1558.61 682.026 1408.24 692.154 1330.26 C 694.797 1311.38 698.103 1292.61 702.066 1273.96 C 704.017 1264.77 706.972 1253.56 708.351 1244.49 C 674.212 1234.56 655.423 1226.26 623.963 1213.05 C 619.51 1212.37 619.956 1211.65 617.011 1213.44 L 616.075 1215.74 C 606.741 1213.11 582.952 1198.71 573.466 1192.9 C 573.139 1190.58 573.134 1189.61 573.032 1187.26 C 543.251 1169.61 508.139 1143.01 491.002 1113.45 C 429.489 1007.36 565.015 933.515 645.33 899.953 C 667.103 890.855 687.536 885.564 708.775 878.653 C 702 851.457 697.275 826.888 693.047 798.509 C 681.724 722.518 680.88 570.019 783.46 558.556 C 852.428 550.85 938.758 613.709 989.016 655.823 C 1002.5 667.118 1016.36 682.654 1029.9 693.055 C 1041.03 683.049 1051.73 672.303 1062.98 662.249 C 1090.93 636.778 1121.35 614.168 1153.8 594.758 C 1193.68 571.434 1246.02 548.762 1292.81 561.341 C 1317.67 568.026 1335.78 585.066 1348.45 606.993 C 1387.43 674.497 1372.89 803.475 1353.72 876.252 C 1370.98 880.206 1403.4 891.529 1418.3 901.25 C 1425.62 903.88 1425.91 894.672 1434.09 893.557 C 1438.23 890.536 1441.72 886.849 1445.39 883.247 C 1425.06 874.121 1441.79 850.453 1437.15 836.794 C 1432.24 822.355 1408.28 853.029 1405.21 854.931 L 1403.8 854.09 C 1402.5 844.954 1406.13 833.122 1414.07 827.671 C 1422.99 821.545 1429.76 822.634 1439.67 824.23 C 1439.5 812.143 1441.54 797.588 1441.86 784.742 C 1424.87 775.168 1416.66 771.566 1397.49 772.029 C 1392.8 776.158 1385.78 783.818 1379.5 781.555 C 1376.74 776.358 1377.78 773.702 1381.05 769.732 C 1393.63 754.425 1407.04 757.234 1424.16 757.382 C 1439.68 757.517 1433.63 738.216 1431.62 730.364 C 1474.01 698.617 1518.89 659.786 1560.4 626.131 C 1601.34 592.938 1651.21 556.09 1690.15 521.758 C 1700.31 508.002 1707.83 513.652 1707.21 492.742 C 1706.61 488.401 1706.68 482.8 1706.59 478.32 C 1711.88 473.645 1719.25 468.967 1725.43 465.55 C 1730.09 469.315 1733.35 472.313 1738.74 474.989 C 1742.04 475.027 1742.7 474.935 1745.99 475.663 L 1747.91 476.003 C 1759.23 470.523 1756.37 454.572 1755.98 443.769 z M 1287.5 1055.35 C 1294.31 1070.79 1303.11 1086 1308.75 1102.02 C 1310.36 1100 1311.88 1098.93 1313.88 1097.33 C 1318.7 1095.67 1323.72 1094.31 1328.48 1092.5 C 1370.71 1076.48 1413.37 1042.21 1432.44 1000.76 C 1421.43 983.638 1419.67 987.826 1411.32 964.295 C 1405.52 951.365 1408.37 938.453 1405.79 924.587 C 1398.11 923.544 1361.64 908.116 1347.16 904.011 C 1341.33 917.314 1338.12 932.406 1332.92 946.331 C 1318.75 984.212 1305.93 1019.35 1287.5 1055.35 z M 1338.53 1162.61 C 1336.21 1156.59 1333.39 1143.18 1331.34 1140.28 C 1328.9 1136.94 1326.35 1128.83 1324.82 1124.6 C 1323.81 1130.68 1323.82 1133.11 1323.85 1139.08 C 1326.34 1145.19 1328.8 1151.31 1331.22 1157.45 C 1331.83 1167.8 1347.79 1206.71 1351.3 1221.76 C 1358.42 1221.03 1372.33 1216.26 1379.6 1213.82 C 1430.82 1196.56 1474.26 1175.36 1515.4 1140.01 L 1518.2 1132.37 C 1515.16 1129 1512.82 1125.56 1510.18 1121.9 C 1504.73 1112.67 1503.29 1107.09 1500.49 1096.69 C 1498.25 1090.52 1495.91 1084.39 1493.47 1078.3 C 1490.19 1073.01 1488.78 1063.44 1483.72 1061.2 C 1459.9 1109.55 1386.46 1142.56 1338.53 1162.61 z M 1259.26 587.463 C 1196.41 593.28 1149.31 629.729 1101.69 667.999 C 1086.71 680.034 1062.77 700.573 1050.42 715.217 C 1075.32 738.615 1097.1 765.731 1119.11 791.817 C 1131.62 806.642 1143.37 822.138 1155.49 837.277 C 1157.41 839.671 1158.97 840.267 1161.88 841.006 C 1209.4 842.288 1279.78 855.323 1325.54 867.535 C 1341.7 803.604 1356.46 685.077 1322.06 624.615 C 1311.52 606.078 1295.64 594.107 1274.96 589.184 C 1271.22 588.293 1263.08 586.836 1259.26 587.463 z M 1158.18 1285.01 C 1150.51 1294.48 1143.26 1306.62 1136.37 1316 C 1118.99 1339.68 1074.86 1399.58 1052.51 1415.39 C 1063.77 1431.64 1116.59 1474.92 1133.82 1487.21 C 1170.97 1513.76 1226.26 1549.76 1273.92 1541.9 C 1291.89 1538.91 1307.91 1528.88 1318.46 1514.03 C 1355.97 1461.4 1347.94 1356.52 1337.39 1295.41 C 1336.13 1288.08 1332.7 1265.57 1328.94 1260.05 C 1326.92 1259.53 1327.43 1259.55 1325.37 1259.53 C 1304.25 1263.74 1285 1268.8 1263.37 1272.71 C 1228.02 1279.1 1192.93 1280.62 1158.18 1285.01 z M 615.509 1177.15 C 650.173 1194.12 678.934 1205.2 716.084 1217.09 C 732.165 1170.76 745.938 1125.27 768.219 1081.27 C 771.206 1075.37 775.64 1066.2 777.861 1060.08 C 757.998 1023.73 740.378 974.342 726.573 935.206 C 724.538 929.436 718.813 907.517 715.202 905.119 C 694.866 913.617 673.866 920.084 653.279 928.266 C 632.357 936.581 614.023 946.345 594.666 957.877 C 552.1 983.233 490.69 1032.16 515.683 1088.98 C 533.722 1129.99 577.292 1156.42 615.509 1177.15 z M 1226.23 1249.78 C 1253.45 1245.82 1296.36 1238.52 1322.21 1230.4 C 1313.56 1202.46 1304.89 1173.12 1293.49 1146.23 C 1290.15 1138.33 1274.5 1096.85 1269.62 1091.94 C 1256.9 1128.86 1224.47 1178.26 1204.38 1213.02 C 1197.6 1224.73 1182.7 1243.45 1178.16 1254.71 C 1194.63 1253.63 1209.86 1251.67 1226.23 1249.78 z M 837.411 1245.34 C 849.193 1247.01 871.223 1251 881.901 1250.8 C 878.624 1241.84 867.169 1226.34 861.415 1217.17 C 850.785 1200.13 840.476 1182.89 830.493 1165.47 C 825.802 1157.14 797.676 1100.11 794.55 1096.75 C 777.774 1128.11 753.423 1191.1 745.041 1225.04 C 767.263 1231.97 815.377 1242.65 837.411 1245.34 z M 1269.82 1023.03 C 1273.81 1014.24 1280.85 999.789 1284 991.143 C 1296.72 960.683 1308.79 928.014 1317.06 896.054 C 1299.05 887.962 1198.93 869.061 1178.41 871.514 C 1180.24 875.328 1189.67 888.033 1192.76 892.665 C 1203.25 908.382 1213.44 924.295 1223.33 940.396 C 1233.57 957.305 1243.43 974.434 1252.92 991.772 C 1257.5 1000.25 1264.83 1015.31 1269.82 1023.03 z M 1030.31 735.576 C 1019.39 745.331 950.049 827.342 946.369 837.718 L 946.943 838.919 C 955.155 839.533 970.93 838.02 980.072 837.51 C 996.288 836.721 1012.52 836.21 1028.75 835.978 C 1046.8 835.775 1064.86 835.806 1082.91 836.069 C 1091.87 836.253 1108.14 837.473 1116.26 836.575 C 1096.83 810.044 1076.61 786.537 1054.73 762.086 C 1049.7 756.47 1035.8 739.627 1030.31 735.576 z M 1553.6 829.28 C 1548.09 841.611 1545.57 850.994 1549.59 864.698 C 1564.52 898.966 1606.52 889.076 1626.28 865.844 C 1629.36 862.222 1646.18 843.236 1647.8 842 C 1649.48 839.547 1652.58 833.405 1653.42 830.491 C 1664.82 790.95 1641.39 769.023 1604.42 782.624 C 1596.83 787.538 1589.87 789.911 1587.22 797.917 C 1590.14 811.712 1596.47 846.16 1616.8 843.016 C 1621.01 842.364 1626.6 838.518 1630.9 838.683 L 1631.36 840.468 C 1627.16 846.911 1619.98 849.534 1612.75 851.635 C 1599.1 848.805 1594.61 845.188 1582.62 838.801 C 1573.98 834.197 1567.52 833.667 1559.03 827.175 L 1557.01 826.207 L 1553.6 829.28 z M 737.089 1253.58 C 733.12 1266.07 731.368 1279.14 728.755 1291.89 C 692.283 1469.86 736.143 1635.51 936.697 1485.12 C 960.422 1466.61 992.664 1439.01 1012.08 1416.04 C 1005.41 1408.48 997.91 1401.65 991.3 1394.05 C 965.193 1364.03 939.526 1333.6 917.349 1300.5 C 913.656 1294.99 909.424 1288.95 905.438 1283.64 C 862.378 1276.36 818.295 1273.04 775.682 1262.41 C 763.039 1259.26 749.847 1256.29 737.089 1253.58 z M 875.699 875.426 C 831.835 880.4 788.336 888.189 745.472 898.745 C 752.008 921.214 772.771 979.75 783.036 1000.24 C 786.873 1009.3 789.392 1017.82 794.691 1025.93 C 816.876 984.186 840.59 943.275 865.786 903.28 C 867.679 900.291 883.273 876.894 883.201 875.731 C 879.414 874.951 879.546 874.965 875.699 875.426 z M 1009.98 714.761 C 1000.83 704.81 987.328 693.866 977.075 684.99 C 934.956 648.528 854.96 585.994 796.518 588.432 C 687.627 596.189 716.548 802.91 737.486 870.713 C 766.728 863.962 796.204 858.268 825.856 853.64 C 836.696 852.016 899.609 845.404 904.876 843.185 C 933.432 806.353 959.522 768.131 991.878 734.223 C 997.976 727.832 1003.99 721.261 1009.98 714.761 z M 1120.67 1289.22 L 944.554 1287.54 C 948.873 1300.92 1018.07 1381.11 1031.44 1392.14 L 1032.64 1393.14 L 1033.37 1393.73 C 1041.02 1387.21 1066.95 1358.24 1073.65 1349.34 C 1083.28 1337.49 1092.74 1325.5 1102.02 1313.37 C 1107.95 1305.6 1114.16 1296.25 1120.67 1289.22 z M 1140.56 1257.68 C 1148.43 1248.41 1162.86 1223.86 1170 1212.27 C 1191.41 1177.77 1211.75 1142.62 1231 1106.88 C 1239.44 1091.04 1246.93 1074.15 1255.13 1058.82 C 1233.16 1009.98 1194.79 951.331 1166.23 905.713 C 1161.38 897.971 1145.09 872.66 1140.19 867.421 C 1128.55 865.646 1116.59 865.194 1104.84 865.566 C 1075.36 866.497 1044.8 864.108 1015.38 865.533 C 994.893 866.071 974.416 866.845 953.95 867.857 C 945.287 868.28 935.734 867.902 927.234 869.53 C 924.48 870.058 922.73 870.744 920.738 872.791 C 903.924 890.064 817.785 1038.37 810.757 1061.26 C 815.153 1072.22 821.704 1085.05 826.929 1095.82 C 843.824 1130.1 862.26 1163.6 882.18 1196.21 C 894.499 1216.17 907.952 1235.77 920.53 1255.61 C 932.794 1257.71 949.564 1258.19 962.41 1258.92 C 991.039 1260.53 1021.77 1261.82 1050.5 1261.2 C 1080.55 1261.1 1110.59 1259.93 1140.56 1257.68 z"/>
<path transform="translate(0,0)" fill="rgb(0,0,0)" fill-opacity="0.188235" d="M 1324.82 1124.6 C 1326.35 1128.83 1328.9 1136.94 1331.34 1140.28 C 1332.12 1146.32 1331.57 1151.39 1331.22 1157.45 C 1328.8 1151.31 1326.34 1145.19 1323.85 1139.08 C 1323.82 1133.11 1323.81 1130.68 1324.82 1124.6 z"/>
<path transform="translate(0,0)" fill="rgb(198,197,198)" d="M 1755.98 443.769 C 1758.64 451.532 1758.71 457.033 1759.42 465.32 C 1759.82 465.532 1760.22 465.744 1760.63 465.956 C 1757.52 468.316 1754.77 476.27 1753.85 480.094 C 1754.23 481.742 1754.62 483.387 1755.02 485.029 L 1761.64 492.613 L 1764.95 497.681 L 1766.41 499.426 C 1768.15 501.462 1770.11 503.672 1771.77 505.737 L 1785.69 522.763 C 1779.92 529.418 1777.35 531.965 1770.67 537.702 C 1769.82 540.854 1768.87 543.921 1768.46 547.153 C 1769.18 550.217 1770.83 558.103 1771.8 560.691 C 1774.14 568.248 1777.58 569.736 1779.09 574.367 C 1778.99 574.726 1778 578.313 1778 578.313 C 1750 601.104 1721.19 623.088 1692.92 645.557 C 1682.09 654.163 1671.15 665.01 1660.06 672.811 C 1659.18 673.797 1657.73 675.535 1656.81 676.347 C 1652.62 678.46 1643.3 695.151 1640.3 700.248 C 1644.26 713.394 1650.11 726.784 1655.41 739.509 C 1647.32 748.246 1644.43 749.809 1643.89 762.387 C 1643.22 778.216 1656.22 784.085 1660.76 794.754 C 1678.5 836.379 1630.64 887.227 1593.3 895.012 C 1589.08 896.01 1585.83 896.382 1582.3 898.874 L 1581.69 900.801 C 1590.82 904.785 1598.14 909.142 1602.3 918.946 C 1604.96 925.371 1605.03 932.58 1602.49 939.054 C 1601.21 942.259 1598.45 945.825 1596.23 948.507 C 1599.31 953.027 1599.37 953.733 1604.95 954.681 C 1613.99 958.12 1620.15 961.165 1624.45 970.876 C 1627.33 977.427 1627.31 984.891 1624.39 991.426 C 1622.95 994.636 1620.22 998.479 1617.65 1000.95 C 1617.08 1003.63 1616.68 1004.5 1617.08 1007.2 C 1621.48 1010.64 1626.48 1014.73 1630.96 1017.93 C 1639.64 1011.88 1647.64 1020.67 1647.96 1028.46 C 1629.46 1042.67 1609.26 1058.63 1591.56 1073.95 C 1589.64 1077.06 1587.81 1080.02 1586.04 1083.22 C 1564.77 1099.65 1535.02 1122.49 1515.4 1140.01 L 1518.2 1132.37 C 1515.16 1129 1512.82 1125.56 1510.18 1121.9 C 1504.73 1112.67 1503.29 1107.09 1500.49 1096.69 C 1498.25 1090.52 1495.91 1084.39 1493.47 1078.3 C 1490.19 1073.01 1488.78 1063.44 1483.72 1061.2 C 1459.9 1109.55 1386.46 1142.56 1338.53 1162.61 C 1336.21 1156.59 1333.39 1143.18 1331.34 1140.28 C 1328.9 1136.94 1326.35 1128.83 1324.82 1124.6 C 1323.94 1121.14 1315.49 1101.27 1313.88 1097.33 C 1318.7 1095.67 1323.72 1094.31 1328.48 1092.5 C 1370.71 1076.48 1413.37 1042.21 1432.44 1000.76 C 1421.43 983.638 1419.67 987.826 1411.32 964.295 C 1405.52 951.365 1408.37 938.453 1405.79 924.587 C 1409.78 913.576 1411.08 910.413 1418.3 901.25 C 1425.62 903.88 1425.91 894.672 1434.09 893.557 C 1438.23 890.536 1441.72 886.849 1445.39 883.247 C 1425.06 874.121 1441.79 850.453 1437.15 836.794 C 1432.24 822.355 1408.28 853.029 1405.21 854.931 L 1403.8 854.09 C 1402.5 844.954 1406.13 833.122 1414.07 827.671 C 1422.99 821.545 1429.76 822.634 1439.67 824.23 C 1439.5 812.143 1441.54 797.588 1441.86 784.742 C 1424.87 775.168 1416.66 771.566 1397.49 772.029 C 1392.8 776.158 1385.78 783.818 1379.5 781.555 C 1376.74 776.358 1377.78 773.702 1381.05 769.732 C 1393.63 754.425 1407.04 757.234 1424.16 757.382 C 1439.68 757.517 1433.63 738.216 1431.62 730.364 C 1474.01 698.617 1518.89 659.786 1560.4 626.131 C 1601.34 592.938 1651.21 556.09 1690.15 521.758 C 1700.31 508.002 1707.83 513.652 1707.21 492.742 C 1706.61 488.401 1706.68 482.8 1706.59 478.32 C 1711.88 473.645 1719.25 468.967 1725.43 465.55 C 1730.09 469.315 1733.35 472.313 1738.74 474.989 C 1742.04 475.027 1742.7 474.935 1745.99 475.663 L 1747.91 476.003 C 1759.23 470.523 1756.37 454.572 1755.98 443.769 z M 1587.22 797.917 C 1590.14 811.712 1596.47 846.16 1616.8 843.016 C 1621.01 842.364 1626.6 838.518 1630.9 838.683 L 1631.36 840.468 C 1627.16 846.911 1619.98 849.534 1612.75 851.635 C 1599.1 848.805 1594.61 845.188 1582.62 838.801 C 1573.98 834.197 1567.52 833.667 1559.03 827.175 L 1557.01 826.207 L 1553.6 829.28 C 1548.09 841.611 1545.57 850.994 1549.59 864.698 C 1564.52 898.966 1606.52 889.076 1626.28 865.844 C 1629.36 862.222 1646.18 843.236 1647.8 842 C 1649.48 839.547 1652.58 833.405 1653.42 830.491 C 1664.82 790.95 1641.39 769.023 1604.42 782.624 C 1596.83 787.538 1589.87 789.911 1587.22 797.917 z"/>
<path transform="translate(0,0)" fill="rgb(198,197,198)" d="M 1559.03 827.175 C 1564.7 815.446 1577.25 806.005 1587.22 797.917 C 1590.14 811.712 1596.47 846.16 1616.8 843.016 C 1621.01 842.364 1626.6 838.518 1630.9 838.683 L 1631.36 840.468 C 1627.16 846.911 1619.98 849.534 1612.75 851.635 C 1599.1 848.805 1594.61 845.188 1582.62 838.801 C 1573.98 834.197 1567.52 833.667 1559.03 827.175 z"/>
<path transform="translate(0,0)" fill="rgb(52,191,248)" d="M 1549.59 864.698 C 1564.52 898.966 1606.52 889.076 1626.28 865.844 C 1629.36 862.222 1646.18 843.236 1647.8 842 C 1633.58 874.337 1583.19 908.186 1552.89 874.307 C 1547.41 876.761 1530.43 885.946 1526.75 890.203 C 1529.9 893.504 1542.25 888.754 1546.48 888.678 C 1563.54 888.372 1575.27 895.382 1593.3 895.012 C 1589.08 896.01 1585.83 896.382 1582.3 898.874 L 1581.69 900.801 C 1590.82 904.785 1598.14 909.142 1602.3 918.946 C 1604.96 925.371 1605.03 932.58 1602.49 939.054 C 1601.21 942.259 1598.45 945.825 1596.23 948.507 C 1599.31 953.027 1599.37 953.733 1604.95 954.681 C 1613.99 958.12 1620.15 961.165 1624.45 970.876 C 1627.33 977.427 1627.31 984.891 1624.39 991.426 C 1622.95 994.636 1620.22 998.479 1617.65 1000.95 C 1617.08 1003.63 1616.68 1004.5 1617.08 1007.2 C 1621.48 1010.64 1626.48 1014.73 1630.96 1017.93 C 1639.64 1011.88 1647.64 1020.67 1647.96 1028.46 C 1629.46 1042.67 1609.26 1058.63 1591.56 1073.95 C 1589.64 1077.06 1587.81 1080.02 1586.04 1083.22 C 1564.77 1099.65 1535.02 1122.49 1515.4 1140.01 L 1518.2 1132.37 C 1515.16 1129 1512.82 1125.56 1510.18 1121.9 C 1504.73 1112.67 1503.29 1107.09 1500.49 1096.69 C 1498.25 1090.52 1495.91 1084.39 1493.47 1078.3 C 1490.19 1073.01 1488.78 1063.44 1483.72 1061.2 C 1459.9 1109.55 1386.46 1142.56 1338.53 1162.61 C 1336.21 1156.59 1333.39 1143.18 1331.34 1140.28 C 1328.9 1136.94 1326.35 1128.83 1324.82 1124.6 C 1323.94 1121.14 1315.49 1101.27 1313.88 1097.33 C 1318.7 1095.67 1323.72 1094.31 1328.48 1092.5 C 1370.71 1076.48 1413.37 1042.21 1432.44 1000.76 C 1421.43 983.638 1419.67 987.826 1411.32 964.295 C 1405.52 951.365 1408.37 938.453 1405.79 924.587 C 1409.78 913.576 1411.08 910.413 1418.3 901.25 C 1425.62 903.88 1425.91 894.672 1434.09 893.557 C 1438.23 890.536 1441.72 886.849 1445.39 883.247 C 1477.59 874.102 1491.36 875.725 1522.81 887.853 C 1530.08 883.656 1544.34 876.143 1550.12 869.924 C 1550.93 869.056 1549.93 866.266 1549.59 864.698 z"/>
<path transform="translate(0,0)" fill="rgb(145,145,145)" d="M 1469.3 951.451 L 1482.86 953.556 C 1487.49 953.862 1507.15 953.974 1508.65 955.011 L 1508.45 955.745 C 1501.1 979.376 1514.1 990.757 1536.55 995.016 C 1538.19 1017.4 1551.09 1028.83 1573.73 1027.12 C 1590.29 1025.88 1603.88 1016.32 1617.08 1007.2 C 1621.48 1010.64 1626.48 1014.73 1630.96 1017.93 C 1639.64 1011.88 1647.64 1020.67 1647.96 1028.46 C 1629.46 1042.67 1609.26 1058.63 1591.56 1073.95 C 1589.64 1077.06 1587.81 1080.02 1586.04 1083.22 C 1564.77 1099.65 1535.02 1122.49 1515.4 1140.01 L 1518.2 1132.37 C 1515.16 1129 1512.82 1125.56 1510.18 1121.9 C 1504.73 1112.67 1503.29 1107.09 1500.49 1096.69 C 1498.25 1090.52 1495.91 1084.39 1493.47 1078.3 C 1491.02 1067.22 1484.21 1051.14 1480.93 1039.5 C 1472.52 1009.58 1469.08 982.417 1469.3 951.451 z"/>
<path transform="translate(0,0)" fill="rgb(198,197,198)" d="M 1482.86 953.556 C 1487.49 953.862 1507.15 953.974 1508.65 955.011 L 1508.45 955.745 C 1487.5 973.287 1508.19 992.359 1525.31 1001.92 C 1529.21 1011.14 1531.78 1018.54 1539.93 1025.1 C 1551.36 1034.28 1567.43 1034.62 1581.18 1031.6 C 1585.34 1030.69 1589.13 1028.69 1593.2 1028.31 L 1594.3 1029.84 C 1593.48 1033.76 1589.36 1037.09 1586.44 1039.71 C 1576.67 1048.48 1524.4 1088.02 1514.32 1086.35 C 1510.06 1085.64 1506.92 1080.89 1504.95 1077.45 C 1493.51 1057.42 1476.94 975.829 1482.86 953.556 z"/>
<path transform="translate(0,0)" fill="rgb(145,145,145)" d="M 1630.96 1017.93 C 1639.64 1011.88 1647.64 1020.67 1647.96 1028.46 C 1629.46 1042.67 1609.26 1058.63 1591.56 1073.95 C 1589.64 1077.06 1587.81 1080.02 1586.04 1083.22 C 1564.77 1099.65 1535.02 1122.49 1515.4 1140.01 L 1518.2 1132.37 C 1515.16 1129 1512.82 1125.56 1510.18 1121.9 C 1504.73 1112.67 1503.29 1107.09 1500.49 1096.69 C 1503.54 1101.65 1506.99 1111.13 1509.28 1116.88 C 1546.47 1090.44 1580.97 1058.65 1617.46 1031.15 C 1621.16 1028.37 1629.97 1022.22 1630.96 1017.93 z"/>
<path transform="translate(0,0)" fill="rgb(0,0,0)" d="M 1630.96 1017.93 C 1639.64 1011.88 1647.64 1020.67 1647.96 1028.46 C 1645.37 1024.62 1642.75 1020.8 1640.11 1016.99 L 1555.49 1084.91 C 1546.88 1091.71 1515.99 1115.14 1510.18 1121.9 C 1504.73 1112.67 1503.29 1107.09 1500.49 1096.69 C 1503.54 1101.65 1506.99 1111.13 1509.28 1116.88 C 1546.47 1090.44 1580.97 1058.65 1617.46 1031.15 C 1621.16 1028.37 1629.97 1022.22 1630.96 1017.93 z"/>
<path transform="translate(0,0)" fill="rgb(0,0,0)" d="M 1518.2 1132.37 C 1537.83 1115.06 1570.16 1091.21 1591.56 1073.95 C 1589.64 1077.06 1587.81 1080.02 1586.04 1083.22 C 1564.77 1099.65 1535.02 1122.49 1515.4 1140.01 L 1518.2 1132.37 z"/>
<path transform="translate(0,0)" fill="rgb(52,191,248)" d="M 1541.76 906.187 C 1559.85 898.208 1562.05 896.456 1581.69 900.801 C 1590.82 904.785 1598.14 909.142 1602.3 918.946 C 1604.96 925.371 1605.03 932.58 1602.49 939.054 C 1601.21 942.259 1598.45 945.825 1596.23 948.507 C 1582.52 961.158 1543.35 1000.11 1524.87 987.048 C 1489.37 961.953 1528.82 951.453 1541.01 931.982 C 1545.99 924.034 1544.15 914.556 1541.76 906.187 z"/>
<path transform="translate(0,0)" fill="rgb(52,191,248)" d="M 1539.98 995.848 C 1562.55 988.425 1578.26 966.422 1599 955.196 C 1600.1 954.601 1603.55 954.638 1604.95 954.681 C 1613.99 958.12 1620.15 961.165 1624.45 970.876 C 1627.33 977.427 1627.31 984.891 1624.39 991.426 C 1622.95 994.636 1620.22 998.479 1617.65 1000.95 C 1601.6 1012.57 1574.81 1031.44 1553.58 1019.64 C 1544.47 1014.58 1542.33 1005.27 1539.98 995.848 z"/>
<path transform="translate(0,0)" fill="rgb(0,0,0)" d="M 1549.59 864.698 C 1564.52 898.966 1606.52 889.076 1626.28 865.844 C 1629.36 862.222 1646.18 843.236 1647.8 842 C 1633.58 874.337 1583.19 908.186 1552.89 874.307 C 1547.41 876.761 1530.43 885.946 1526.75 890.203 C 1529.9 893.504 1542.25 888.754 1546.48 888.678 C 1563.54 888.372 1575.27 895.382 1593.3 895.012 C 1589.08 896.01 1585.83 896.382 1582.3 898.874 L 1581.69 900.801 C 1562.05 896.456 1559.85 898.208 1541.76 906.187 C 1544.15 914.556 1545.99 924.034 1541.01 931.982 C 1528.82 951.453 1489.37 961.953 1524.87 987.048 C 1543.35 1000.11 1582.52 961.158 1596.23 948.507 C 1599.31 953.027 1599.37 953.733 1604.95 954.681 C 1603.55 954.638 1600.1 954.601 1599 955.196 C 1578.26 966.422 1562.55 988.425 1539.98 995.848 C 1542.33 1005.27 1544.47 1014.58 1553.58 1019.64 C 1574.81 1031.44 1601.6 1012.57 1617.65 1000.95 C 1617.08 1003.63 1616.68 1004.5 1617.08 1007.2 C 1603.88 1016.32 1590.29 1025.88 1573.73 1027.12 C 1551.09 1028.83 1538.19 1017.4 1536.55 995.016 C 1514.1 990.757 1501.1 979.376 1508.45 955.745 L 1508.65 955.011 C 1507.15 953.974 1487.49 953.862 1482.86 953.556 L 1469.3 951.451 C 1469.08 982.417 1472.52 1009.58 1480.93 1039.5 C 1484.21 1051.14 1491.02 1067.22 1493.47 1078.3 C 1490.19 1073.01 1488.78 1063.44 1483.72 1061.2 C 1470.56 1042.07 1464.53 975.542 1464.76 952.109 C 1464.8 948.314 1460.63 950.579 1458.86 946.022 C 1460.3 944.273 1460.17 944.078 1462.84 944.581 C 1480.58 947.928 1498.37 952.25 1516.25 946.598 C 1530.7 942.639 1543.88 924.344 1536.81 909.484 C 1525.48 885.66 1487.79 879.591 1464.29 883.156 C 1453.5 884.793 1443.58 889.248 1434.09 893.557 C 1438.23 890.536 1441.72 886.849 1445.39 883.247 C 1477.59 874.102 1491.36 875.725 1522.81 887.853 C 1530.08 883.656 1544.34 876.143 1550.12 869.924 C 1550.93 869.056 1549.93 866.266 1549.59 864.698 z"/>
<path transform="translate(0,0)" fill="rgb(105,105,107)" d="M 1545.17 891.071 C 1548.61 890.876 1553.3 890.214 1555.56 892.96 C 1553.22 896.268 1548.14 898.444 1544.39 900.468 L 1540.94 901.923 C 1537.44 901.231 1535.34 898.116 1532.84 895.347 L 1545.17 891.071 z"/>
<path transform="translate(0,0)" fill="rgb(0,0,0)" d="M 1418.3 901.25 C 1425.62 903.88 1425.91 894.672 1434.09 893.557 C 1431.47 896.818 1427.06 899.008 1424 901.992 C 1405.72 919.795 1407.43 941.57 1411.32 964.295 C 1405.52 951.365 1408.37 938.453 1405.79 924.587 C 1409.78 913.576 1411.08 910.413 1418.3 901.25 z"/>
<path transform="translate(0,0)" fill="rgb(0,0,0)" d="M 1755.98 443.769 C 1758.64 451.532 1758.71 457.033 1759.42 465.32 C 1759.82 465.532 1760.22 465.744 1760.63 465.956 C 1757.52 468.316 1754.77 476.27 1753.85 480.094 C 1754.23 481.742 1754.62 483.387 1755.02 485.029 L 1761.64 492.613 L 1764.95 497.681 L 1766.41 499.426 C 1768.15 501.462 1770.11 503.672 1771.77 505.737 L 1785.69 522.763 C 1779.92 529.418 1777.35 531.965 1770.67 537.702 C 1769.82 540.854 1768.87 543.921 1768.46 547.153 C 1769.18 550.217 1770.83 558.103 1771.8 560.691 C 1774.14 568.248 1777.58 569.736 1779.09 574.367 C 1778.99 574.726 1778 578.313 1778 578.313 C 1750 601.104 1721.19 623.088 1692.92 645.557 C 1682.09 654.163 1671.15 665.01 1660.06 672.811 C 1659.18 673.797 1657.73 675.535 1656.81 676.347 C 1652.62 678.46 1643.3 695.151 1640.3 700.248 C 1644.26 713.394 1650.11 726.784 1655.41 739.509 C 1647.32 748.246 1644.43 749.809 1643.89 762.387 C 1643.22 778.216 1656.22 784.085 1660.76 794.754 C 1678.5 836.379 1630.64 887.227 1593.3 895.012 C 1575.27 895.382 1563.54 888.372 1546.48 888.678 C 1542.25 888.754 1529.9 893.504 1526.75 890.203 C 1530.43 885.946 1547.41 876.761 1552.89 874.307 C 1583.19 908.186 1633.58 874.337 1647.8 842 C 1649.48 839.547 1652.58 833.405 1653.42 830.491 C 1664.82 790.95 1641.39 769.023 1604.42 782.624 C 1596.83 787.538 1589.87 789.911 1587.22 797.917 C 1577.25 806.005 1564.7 815.446 1559.03 827.175 L 1557.01 826.207 L 1553.6 829.28 C 1563.31 808.934 1619.4 765.411 1639.86 747.659 C 1632.97 740.485 1623.46 728.025 1616.95 720.017 L 1578.93 673.662 L 1568.66 661.125 L 1559.7 649.693 C 1558.43 648.332 1557.52 647.105 1556.36 645.633 C 1556.49 643.394 1556.08 642.85 1557.99 641.199 C 1573.43 627.848 1590.46 613.954 1606.22 601.2 C 1636.48 576.396 1666.87 551.756 1697.39 527.279 C 1707.54 519.234 1744.79 490.496 1750.38 483.39 C 1750.81 479.38 1750.43 480.332 1747.91 476.003 C 1759.23 470.523 1756.37 454.572 1755.98 443.769 z"/>
<path transform="translate(0,0)" fill="rgb(198,197,198)" d="M 1768.46 547.153 C 1769.18 550.217 1770.83 558.103 1771.8 560.691 C 1774.14 568.248 1777.58 569.736 1779.09 574.367 C 1778.99 574.726 1778 578.313 1778 578.313 C 1750 601.104 1721.19 623.088 1692.92 645.557 C 1682.09 654.163 1671.15 665.01 1660.06 672.811 C 1659.18 673.797 1657.73 675.535 1656.81 676.347 C 1652.62 678.46 1643.3 695.151 1640.3 700.248 C 1644.26 713.394 1650.11 726.784 1655.41 739.509 C 1647.32 748.246 1644.43 749.809 1643.89 762.387 C 1643.22 778.216 1656.22 784.085 1660.76 794.754 C 1678.5 836.379 1630.64 887.227 1593.3 895.012 C 1575.27 895.382 1563.54 888.372 1546.48 888.678 C 1542.25 888.754 1529.9 893.504 1526.75 890.203 C 1530.43 885.946 1547.41 876.761 1552.89 874.307 C 1583.19 908.186 1633.58 874.337 1647.8 842 C 1649.48 839.547 1652.58 833.405 1653.42 830.491 C 1664.82 790.95 1641.39 769.023 1604.42 782.624 C 1607.9 778.428 1638.15 752.792 1644.1 747.608 C 1631.66 735.659 1618.99 717.599 1606.85 703.903 C 1632.52 678.471 1642.91 685.389 1646.64 646.584 C 1668.34 626.454 1695.61 607.1 1718.44 587.916 C 1735.01 573.988 1752.32 561.953 1768.46 547.153 z"/>
<path transform="translate(0,0)" fill="rgb(145,145,145)" d="M 1660.06 672.811 C 1658.99 669.397 1658.16 667.383 1659.47 664.109 C 1667.02 656.244 1769.05 572.331 1774.23 571.001 L 1779.09 574.367 C 1778.99 574.726 1778 578.313 1778 578.313 C 1750 601.104 1721.19 623.088 1692.92 645.557 C 1682.09 654.163 1671.15 665.01 1660.06 672.811 z"/>
<path transform="translate(0,0)" fill="rgb(0,0,0)" d="M 1771.8 560.691 C 1774.14 568.248 1777.58 569.736 1779.09 574.367 L 1774.23 571.001 C 1769.05 572.331 1667.02 656.244 1659.47 664.109 C 1658.16 667.383 1658.99 669.397 1660.06 672.811 C 1659.18 673.797 1657.73 675.535 1656.81 676.347 C 1655.48 671.918 1653.25 666.111 1656.82 662.303 C 1666.6 651.847 1678.8 642.955 1689.99 633.951 L 1749.87 585.873 C 1756.48 580.624 1765.98 573.444 1772.01 567.365 C 1772.9 566.468 1772.01 562.518 1771.8 560.691 z"/>
<path transform="translate(0,0)" fill="rgb(145,145,145)" d="M 1771.77 505.737 L 1785.69 522.763 C 1779.92 529.418 1777.35 531.965 1770.67 537.702 C 1732.26 569.818 1693.63 601.689 1654.81 633.312 C 1637.3 647.717 1610.24 671.808 1591.72 683.882 C 1587.57 678.687 1583.13 672.805 1578.5 668.136 C 1586.48 658.72 1617.87 635.198 1629.15 626.47 C 1650 610.332 1672.1 590.949 1691.97 573.81 C 1705.52 562.127 1764.44 518.242 1771.77 505.737 z"/>
<path transform="translate(0,0)" fill="rgb(191,190,190)" d="M 1744.04 502.506 C 1750.37 496.738 1753.28 492.548 1761.64 492.613 L 1764.95 497.681 L 1766.41 499.426 C 1768.15 501.462 1770.11 503.672 1771.77 505.737 C 1764.44 518.242 1705.52 562.127 1691.97 573.81 C 1672.1 590.949 1650 610.332 1629.15 626.47 C 1617.87 635.198 1586.48 658.72 1578.5 668.136 L 1569.69 657.803 L 1567.64 654.846 C 1575.22 646.371 1580.19 647.369 1589.92 639.563 C 1609.28 624.037 1627.59 607.907 1647.03 592.449 L 1644.5 592.112 C 1641.77 593.37 1642.88 593.273 1640.1 593.101 C 1640.98 590.245 1646.37 586.658 1648.66 584.112 C 1671.29 558.954 1703.14 547.102 1726.21 522.692 C 1732.31 516.241 1740.24 510.569 1744.04 502.506 z"/>
<path transform="translate(0,0)" fill="rgb(248,248,249)" d="M 1744.04 502.506 C 1750.37 496.738 1753.28 492.548 1761.64 492.613 L 1764.95 497.681 L 1766.41 499.426 C 1755.96 517.659 1666.19 577.725 1646.82 598.913 C 1639.69 606.711 1576.95 656.419 1569.69 657.803 L 1567.64 654.846 C 1575.22 646.371 1580.19 647.369 1589.92 639.563 C 1609.28 624.037 1627.59 607.907 1647.03 592.449 L 1644.5 592.112 C 1641.77 593.37 1642.88 593.273 1640.1 593.101 C 1640.98 590.245 1646.37 586.658 1648.66 584.112 C 1671.29 558.954 1703.14 547.102 1726.21 522.692 C 1732.31 516.241 1740.24 510.569 1744.04 502.506 z"/>
<path transform="translate(0,0)" fill="rgb(198,197,198)" d="M 1744.04 502.506 C 1750.37 496.738 1753.28 492.548 1761.64 492.613 L 1764.95 497.681 C 1758.15 499.354 1667.35 580.313 1647.03 592.449 L 1644.5 592.112 C 1641.77 593.37 1642.88 593.273 1640.1 593.101 C 1640.98 590.245 1646.37 586.658 1648.66 584.112 C 1671.29 558.954 1703.14 547.102 1726.21 522.692 C 1732.31 516.241 1740.24 510.569 1744.04 502.506 z"/>
<path transform="translate(0,0)" fill="url(#Gradient1)" d="M 1558.5 644.375 C 1612.89 597.578 1676.56 547.69 1732.93 502.446 C 1738.08 503.778 1738.71 503.999 1744.04 502.506 C 1740.24 510.569 1732.31 516.241 1726.21 522.692 C 1703.14 547.102 1671.29 558.954 1648.66 584.112 C 1646.37 586.658 1640.98 590.245 1640.1 593.101 C 1642.88 593.273 1641.77 593.37 1644.5 592.112 L 1647.03 592.449 C 1627.59 607.907 1609.28 624.037 1589.92 639.563 C 1580.19 647.369 1575.22 646.371 1567.64 654.846 L 1558.5 644.375 z"/>
<path transform="translate(0,0)" fill="rgb(145,145,145)" d="M 1732.93 502.446 C 1738.5 497.845 1749.29 488.414 1755.02 485.029 L 1761.64 492.613 C 1753.28 492.548 1750.37 496.738 1744.04 502.506 C 1738.71 503.999 1738.08 503.778 1732.93 502.446 z"/>
<path transform="translate(0,0)" fill="rgb(145,145,145)" d="M 1641.81 649.012 L 1642.47 650.282 C 1642.63 662.503 1640.43 669.861 1631.85 678.825 C 1627.55 683.327 1610.45 699.086 1604.51 699.31 L 1601.35 695.757 L 1594.08 686.854 C 1609.83 674.443 1626.6 661.936 1641.81 649.012 z"/>
<path transform="translate(0,0)" fill="rgb(0,0,0)" d="M 1511.8 819.797 C 1496.73 827.549 1483.61 827.091 1471.34 813.551 C 1459.43 800.406 1443.8 779.396 1441.8 761.217 C 1441.29 756.624 1447.97 751.188 1451.15 748.316 C 1451.98 745.417 1450.12 738.977 1449.41 735.665 C 1455.17 724.401 1520.9 678.219 1533.34 665.147 C 1536.52 661.808 1540.88 658.223 1545.41 660.726 C 1548.19 664.219 1552.87 669.762 1555.16 673.252 L 1556.58 674.497 L 1562.33 681.333 C 1578.34 701.299 1598.47 727.062 1615.48 745.558 C 1582.98 770.027 1551.43 795.723 1520.89 822.592 L 1511.8 819.797 z"/>
<path transform="translate(0,0)" fill="rgb(198,197,198)" d="M 1561.63 684.96 C 1564.73 688.366 1568.22 692.994 1571.16 696.655 L 1575.58 702.576 C 1569.76 706.971 1511.26 745.201 1545.06 754.842 C 1554.41 757.509 1582.26 730.233 1590.95 721.931 L 1602.92 736.911 C 1591.36 745.314 1580.84 753.89 1569.72 762.793 C 1566.21 765.598 1557.26 773.231 1553.88 775.404 C 1544.19 783.998 1534.54 791.791 1525.39 801.004 C 1522.09 804.328 1514.84 813.222 1511.6 814.716 L 1510.93 814.594 C 1486.77 803.178 1478.62 791.301 1463.62 769.331 L 1462.49 765.986 C 1459.75 762.984 1456.92 751.144 1455.69 746.747 L 1455.77 744.818 C 1455.89 742.375 1455.89 739.15 1457.49 737.408 C 1470.32 723.494 1489.49 709.788 1503.68 696.965 L 1506.57 702.82 C 1505.02 707.612 1504.88 708.555 1504.58 713.592 C 1508.93 719.006 1510.31 719.436 1517.24 720.53 C 1518.06 719.559 1517.46 720.132 1518.63 719.345 C 1533.46 709.291 1548.3 696.897 1561.63 684.96 z"/>
<path transform="translate(0,0)" fill="rgb(198,197,198)" d="M 1503.68 696.965 L 1506.57 702.82 C 1505.02 707.612 1504.88 708.555 1504.58 713.592 C 1508.93 719.006 1510.31 719.436 1517.24 720.53 C 1507.93 731.855 1467.45 757.33 1462.49 765.986 C 1459.75 762.984 1456.92 751.144 1455.69 746.747 L 1455.77 744.818 C 1455.89 742.375 1455.89 739.15 1457.49 737.408 C 1470.32 723.494 1489.49 709.788 1503.68 696.965 z"/>
<path transform="translate(0,0)" fill="rgb(145,145,145)" d="M 1503.68 696.965 L 1506.57 702.82 C 1505.02 707.612 1504.88 708.555 1504.58 713.592 C 1497.29 719.643 1463.06 746.683 1455.69 746.747 L 1455.77 744.818 C 1455.89 742.375 1455.89 739.15 1457.49 737.408 C 1470.32 723.494 1489.49 709.788 1503.68 696.965 z"/>
<path transform="translate(0,0)" fill="rgb(248,248,249)" d="M 1561.63 684.96 C 1564.73 688.366 1568.22 692.994 1571.16 696.655 C 1557.32 705.612 1539.1 715.467 1526.09 725.481 C 1508.75 738.83 1491.89 754.336 1473.9 767.075 C 1470.88 769.207 1467.19 769.369 1463.62 769.331 L 1462.49 765.986 C 1467.45 757.33 1507.93 731.855 1517.24 720.53 C 1518.06 719.559 1517.46 720.132 1518.63 719.345 C 1533.46 709.291 1548.3 696.897 1561.63 684.96 z"/>
<path transform="translate(0,0)" fill="rgb(191,190,190)" d="M 1510.93 814.594 C 1510.99 813.983 1511.29 811.193 1511.44 810.891 C 1516.06 801.508 1543.68 772.978 1553.88 775.404 C 1544.19 783.998 1534.54 791.791 1525.39 801.004 C 1522.09 804.328 1514.84 813.222 1511.6 814.716 L 1510.93 814.594 z"/>
<path transform="translate(0,0)" fill="rgb(145,145,145)" d="M 1575.88 705.67 C 1579.01 706.361 1586.82 716.587 1589.62 719.806 C 1578.37 729.622 1563.74 743.062 1551.21 750.621 C 1546.44 751.715 1544.34 751.727 1539.91 750.047 C 1530.12 737.974 1567.53 712.332 1575.88 705.67 z"/>
<path transform="translate(0,0)" fill="rgb(145,145,145)" d="M 1547.49 670.713 C 1549.57 671.942 1557.39 680.662 1559.77 683.104 C 1551.82 690.955 1528.19 708.88 1518.84 715.463 C 1515.3 716.365 1514.79 716.669 1511.1 715.924 C 1499.18 705.931 1540.2 676.595 1547.49 670.713 z"/>
<path transform="translate(0,0)" fill="rgb(145,145,145)" d="M 1604.07 739.702 C 1606.78 740.528 1607.66 741.448 1608.87 743.665 C 1607.88 747.649 1542.39 797.127 1535.97 804.443 C 1534.15 806.519 1522.53 816.245 1519.95 818.249 C 1516.66 817.7 1518.01 818.469 1515.54 816.517 C 1519.66 804.762 1589.85 750.99 1604.07 739.702 z"/>
<path transform="translate(0,0)" fill="rgb(191,190,190)" d="M 1467.92 783.789 C 1470.28 785.449 1485.91 802.522 1491.73 807.505 L 1480.71 814.214 C 1474.66 815.874 1461.24 795.168 1457.64 790.131 L 1467.92 783.789 z"/>
<path transform="translate(0,0)" fill="rgb(105,105,107)" d="M 1503.68 696.965 C 1508.98 691.934 1538.22 664.709 1544.21 664.805 L 1545.46 666.337 C 1543.21 671.199 1512.65 691.998 1508.65 700.149 C 1508.72 700.001 1506.58 702.816 1506.57 702.82 L 1503.68 696.965 z"/>
<path transform="translate(0,0)" fill="rgb(191,190,190)" d="M 1451.57 752.609 C 1454.09 754.698 1457.86 766.429 1459.1 770.049 C 1456.92 772.51 1455.02 772.47 1451.4 773.723 C 1450.12 773.584 1449.51 773.271 1448.27 772.855 C 1442.19 765.737 1445.83 758.339 1451.57 752.609 z"/>
<path transform="translate(0,0)" fill="rgb(145,145,145)" d="M 1493.74 809.71 C 1497.71 812.123 1504.02 814.962 1505.67 818.435 C 1503.43 821.113 1500.16 821.242 1496.54 822.045 C 1492.24 821.658 1485.42 821.637 1484.41 817.112 C 1486.18 813.859 1490.46 811.778 1493.74 809.71 z"/>
<path transform="translate(0,0)" fill="rgb(191,190,190)" d="M 1452.77 774.296 L 1455.25 775.727 C 1457.34 779.613 1459.41 782.451 1456.59 786.341 C 1454.24 782.822 1451.23 780.621 1450.65 776.458 L 1452.77 774.296 z"/>
<path transform="translate(0,0)" fill="rgb(145,145,145)" d="M 1725.43 465.55 C 1730.09 469.315 1733.35 472.313 1738.74 474.989 C 1738.07 478.415 1713.62 498.53 1708.3 504.175 C 1707.99 500.699 1707.73 496.092 1707.21 492.742 C 1706.61 488.401 1706.68 482.8 1706.59 478.32 C 1711.88 473.645 1719.25 468.967 1725.43 465.55 z"/>
<path transform="translate(0,0)" fill="rgb(191,190,190)" d="M 1559.7 649.693 L 1568.66 661.125 L 1567.52 663.029 C 1561.79 666.737 1560.05 668.545 1555.16 673.252 C 1552.87 669.762 1548.19 664.219 1545.41 660.726 C 1550.49 655.737 1553.89 653.491 1559.7 649.693 z"/>
<path transform="translate(0,0)" fill="rgb(191,190,190)" d="M 1568.66 661.125 L 1578.93 673.662 C 1572.47 678.995 1570.66 681.593 1562.33 681.333 L 1556.58 674.497 L 1555.16 673.252 C 1560.05 668.545 1561.79 666.737 1567.52 663.029 L 1568.66 661.125 z"/>
<path transform="translate(0,0)" fill="rgb(248,248,249)" d="M 1567.52 663.029 C 1568.75 671.396 1564.83 674.494 1556.58 674.497 L 1555.16 673.252 C 1560.05 668.545 1561.79 666.737 1567.52 663.029 z"/>
<path transform="translate(0,0)" fill="rgb(0,0,0)" d="M 1738.74 474.989 C 1742.04 475.027 1742.7 474.935 1745.99 475.663 C 1738.83 481.906 1696.3 518.726 1690.15 521.758 C 1700.31 508.002 1707.83 513.652 1707.21 492.742 C 1707.73 496.092 1707.99 500.699 1708.3 504.175 C 1713.62 498.53 1738.07 478.415 1738.74 474.989 z"/>
<path transform="translate(0,0)" fill="rgb(0,0,0)" d="M 573.032 1187.26 C 583.322 1192.72 593.436 1198.23 603.808 1203.57 C 610.049 1206.78 618.142 1209.91 623.963 1213.05 C 619.51 1212.37 619.956 1211.65 617.011 1213.44 L 616.075 1215.74 C 606.741 1213.11 582.952 1198.71 573.466 1192.9 C 573.139 1190.58 573.134 1189.61 573.032 1187.26 z"/>
<path transform="translate(0,0)" fill="rgb(0,0,0)" d="M 1308.75 1102.02 C 1310.36 1100 1311.88 1098.93 1313.88 1097.33 C 1315.49 1101.27 1323.94 1121.14 1324.82 1124.6 C 1323.81 1130.68 1323.82 1133.11 1323.85 1139.08 C 1319.11 1126.87 1314.13 1113.9 1308.75 1102.02 z"/>
<path transform="translate(0,0)" fill="rgb(52,191,248)" d="M 1025.37 969.143 C 1080.59 965.238 1128.59 1006.69 1132.77 1061.88 C 1136.94 1117.08 1095.73 1165.28 1040.56 1169.74 C 984.992 1174.22 936.38 1132.65 932.172 1077.07 C 927.965 1021.48 969.767 973.076 1025.37 969.143 z"/>
<path transform="translate(0,0)" fill="rgb(52,191,248)" d="M 573.466 1192.9 C 582.952 1198.71 606.741 1213.11 616.075 1215.74 C 616.196 1223.54 608.709 1242.1 606.732 1250.88 C 602.548 1269.47 595.683 1305.18 597.123 1323.7 C 622.528 1337.38 639.298 1357.34 648.129 1384.99 C 652.421 1398.43 653.727 1413.13 646.909 1426.18 C 642.003 1435.57 630.609 1439.93 620.923 1435.12 L 619.209 1431.88 C 617.186 1433.01 618.043 1435.32 615.105 1437.96 C 607.321 1448.68 602.613 1455.92 590.007 1461.55 C 555.12 1477.59 505.764 1464.29 489.651 1427.77 C 477.351 1399.89 496.664 1355.49 519.107 1336.92 C 525.786 1331.4 532.687 1327.9 540.543 1324.54 C 540.023 1284.33 547.224 1246.89 565.178 1210.74 C 568.076 1204.91 570.986 1198.91 573.466 1192.9 z"/>
<path transform="translate(0,0)" fill="rgb(0,0,0)" d="M 615.105 1437.96 C 615.616 1434.63 620.914 1412.15 623.018 1409.99 C 626.565 1415.86 622.785 1428.81 620.923 1435.12 L 619.209 1431.88 C 617.186 1433.01 618.043 1435.32 615.105 1437.96 z"/>
<path transform="translate(0,0)" fill="rgb(248,248,249)" d="M 1730.81 228.566 C 1732.65 226.623 1733.31 224.697 1734.43 222.269 C 1738.73 253.536 1780.45 256.062 1780.91 294.269 C 1781.04 302.662 1778.51 310.881 1773.69 317.755 C 1762.98 333.067 1741.64 340.754 1735.65 359.917 C 1721.63 404.752 1777.48 417.165 1760.63 465.956 C 1760.22 465.744 1759.82 465.532 1759.42 465.32 C 1758.71 457.033 1758.64 451.532 1755.98 443.769 C 1746.79 421.662 1721.29 415.036 1713.2 389.89 C 1699.78 352.664 1729.32 331.473 1755.11 312.112 C 1767.43 302.865 1765.72 282.172 1757.81 270.199 C 1749.78 258.058 1730.74 244.202 1730.81 228.566 z"/>
<path transform="translate(0,0)" fill="rgb(248,248,249)" fill-opacity="0.960784" d="M 1730.81 228.566 C 1730.88 219.485 1730.77 215.992 1732.79 207.279 L 1734.44 206.223 L 1733.15 205.862 L 1734.39 205.347 L 1733.98 204.075 L 1733.4 205.228 L 1734.31 204.278 C 1735.81 211.083 1734.97 215.345 1734.43 222.269 C 1733.31 224.697 1732.65 226.623 1730.81 228.566 z"/>
</svg>